<svg xmlns="http://www.w3.org/2000/svg" data-name="Layer 1" viewBox="0 0 100 100" x="0px" y="0px"><defs><style>.cls-1{fill:none;stroke:#000;stroke-linejoin:round;stroke-width:2px;}</style></defs><title>Artboard 36</title><path d="M51.3,38.13a.66.66,0,0,0-.91.18L36.79,64a1.76,1.76,0,0,0-.19,1l.78,7.83a.45.45,0,0,0,.63.34l6.9-3.77a1.76,1.76,0,0,0,.72-.72L59.24,43a.66.66,0,0,0-.37-.85Z"/><path d="M63.11,34.18l-7.57-4a.71.71,0,0,0-1,.28l-2.68,5.08a.82.82,0,0,0,.34,1.1l7.4,3.91a.82.82,0,0,0,1.1-.34l2.68-5.08A.71.71,0,0,0,63.11,34.18Z"/><line class="cls-1" x1="32.54" y1="73.44" x2="62.98" y2="73.44"/></svg>