<svg xmlns="http://www.w3.org/2000/svg" xmlns:xlink="http://www.w3.org/1999/xlink" xmlns:serif="http://www.serif.com/" viewBox="0 0 32 32" version="1.1" xml:space="preserve" style="" x="0px" y="0px" fill-rule="evenodd" clip-rule="evenodd" stroke-linejoin="round" stroke-miterlimit="1.41421"><rect serif:id="plus add circle" x="0" y="0" width="32" height="32" style="" fill="none"/><path d="M16.089,3.009c0.307,0.043 0.386,0.101 0.523,0.208c0.494,0.387 0.485,1.267 -0.075,1.628c-0.106,0.069 -0.226,0.117 -0.351,0.142c-0.262,0.051 -0.664,0.022 -1.039,0.05c-4.883,0.372 -9.31,4.266 -10.045,9.399c-0.471,3.289 0.641,6.78 2.951,9.189c2.506,2.612 6.347,3.875 9.958,3.206c4.404,-0.816 8.144,-4.544 8.857,-9.111c0.537,-3.435 -0.661,-7.102 -3.157,-9.558c-1.117,-1.098 -2.468,-1.947 -3.943,-2.49l-0.088,-0.037c-0.257,-0.139 -0.284,-0.192 -0.365,-0.299c-0.342,-0.452 -0.198,-1.196 0.315,-1.479c0.484,-0.267 1.083,0.017 1.652,0.27c4.309,1.915 7.415,6.299 7.697,11.119c0.235,4.018 -1.514,8.111 -4.622,10.723c-3.386,2.847 -8.262,3.794 -12.494,2.376c-4.416,-1.481 -7.901,-5.48 -8.691,-10.155c-0.824,-4.868 1.361,-10.134 5.551,-12.964c2.125,-1.436 4.674,-2.218 7.271,-2.222c0.031,0.002 0.063,0.003 0.095,0.005Zm-1.094,12.001l0,-5.003c0.007,-0.209 0.025,-0.244 0.058,-0.335c0.121,-0.342 0.442,-0.606 0.806,-0.656c0.131,-0.018 0.162,-0.008 0.205,-0.007c0.208,0.022 0.242,0.042 0.33,0.081c0.355,0.154 0.588,0.525 0.602,0.917l0,5.003l5.002,0c0.023,0 0.046,0.001 0.068,0.002c0.252,0.026 0.324,0.065 0.452,0.143c0.554,0.338 0.628,1.269 0.057,1.672c-0.13,0.093 -0.283,0.153 -0.441,0.174c-0.06,0.009 -0.075,0.008 -0.136,0.01l-5.002,0l0,5.002c-0.009,0.253 -0.043,0.327 -0.112,0.46c-0.312,0.601 -1.289,0.708 -1.706,0.117c-0.092,-0.131 -0.152,-0.283 -0.174,-0.441c-0.008,-0.06 -0.007,-0.075 -0.009,-0.136l0,-5.002l-5.003,0c-0.252,-0.009 -0.327,-0.044 -0.46,-0.113c-0.597,-0.309 -0.717,-1.281 -0.116,-1.705c0.13,-0.092 0.282,-0.152 0.44,-0.174c0.06,-0.008 0.076,-0.007 0.136,-0.009l5.003,0Z" style="" fill-rule="nonzero"/><text x="0" y="47" fill="#000000" font-size="5px" font-weight="bold" font-family="'Helvetica Neue', Helvetica, Arial-Unicode, Arial, Sans-serif">Created by Bombasticon Studio</text><text x="0" y="52" fill="#000000" font-size="5px" font-weight="bold" font-family="'Helvetica Neue', Helvetica, Arial-Unicode, Arial, Sans-serif">from the Noun Project</text></svg>