<svg xmlns="http://www.w3.org/2000/svg" viewBox="0 0 50 50" x="0px" y="0px"><title>43. menu</title><g data-name="Layer 44"><path d="M5.5,17h39a4,4,0,0,0,0-8H5.5a4,4,0,0,0,0,8Zm0-6h39a2,2,0,0,1,0,4H5.5a2,2,0,0,1,0-4Zm39,10H5.5a4,4,0,0,0,0,8h39a4,4,0,0,0,0-8Zm0,6H5.5a2,2,0,0,1,0-4h39a2,2,0,0,1,0,4Zm0,6H5.5a4,4,0,0,0,0,8h39a4,4,0,0,0,0-8Zm0,6H5.5a2,2,0,0,1,0-4h39a2,2,0,0,1,0,4Z"/></g><text x="0" y="65" fill="#000000" font-size="5px" font-weight="bold" font-family="'Helvetica Neue', Helvetica, Arial-Unicode, Arial, Sans-serif">Created by agus raharjo</text><text x="0" y="70" fill="#000000" font-size="5px" font-weight="bold" font-family="'Helvetica Neue', Helvetica, Arial-Unicode, Arial, Sans-serif">from the Noun Project</text></svg>