<svg xmlns="http://www.w3.org/2000/svg" xmlns:xlink="http://www.w3.org/1999/xlink" version="1.1" x="0px" y="0px" viewBox="0 0 24 30" style="enable-background:new 0 0 24 24;" xml:space="preserve"><g><path d="M15,1.25H9C3.5673828,1.25,1.25,3.5673828,1.25,9v6c0,5.4326172,2.3173828,7.75,7.75,7.75h6   c5.4326172,0,7.75-2.3173828,7.75-7.75V9C22.75,3.5673828,20.4326172,1.25,15,1.25z M14.25,21.25H9   c-4.6142578,0-6.25-1.6357422-6.25-6.25V9c0-4.6142578,1.6357422-6.25,6.25-6.25h5.25V21.25z M21.25,15   c0,4.3538208-1.4593506,6.0541382-5.5,6.2324219V2.7675781C19.7906494,2.9458618,21.25,4.6461792,21.25,9V15z M8.5302734,8.9101562   l2.5595703,2.5595703c0.2929688,0.2929688,0.2929688,0.7675781,0,1.0605469l-2.5595703,2.5595703   C8.3837891,15.2363281,8.1923828,15.3095703,8,15.3095703s-0.3837891-0.0732422-0.5302734-0.2197266   c-0.2929688-0.2929688-0.2929688-0.7675781,0-1.0605469L9.4990234,12L7.4697266,9.9707031   c-0.2929688-0.2929688-0.2929688-0.7675781,0-1.0605469S8.2373047,8.6171875,8.5302734,8.9101562z"/></g><text x="0" y="39" fill="#000000" font-size="5px" font-weight="bold" font-family="'Helvetica Neue', Helvetica, Arial-Unicode, Arial, Sans-serif">Created by Azland Studio</text><text x="0" y="44" fill="#000000" font-size="5px" font-weight="bold" font-family="'Helvetica Neue', Helvetica, Arial-Unicode, Arial, Sans-serif">from the Noun Project</text></svg>