<svg xmlns="http://www.w3.org/2000/svg" data-name="Layer 1" viewBox="0 0 100 125" x="0px" y="0px"><title>Artboard 44</title><path d="M22,67A11,11,0,0,0,33,78H67A11,11,0,0,0,78,67V33A11,11,0,0,0,67,22H33A11,11,0,0,0,22,33ZM72,33V67a5,5,0,0,1-5,5H44V28H67A5,5,0,0,1,72,33ZM28,33a5,5,0,0,1,5-5h5V72H33a5,5,0,0,1-5-5Z"/><text x="0" y="115" fill="#000000" font-size="5px" font-weight="bold" font-family="'Helvetica Neue', Helvetica, Arial-Unicode, Arial, Sans-serif">Created by Gregor Cresnar</text><text x="0" y="120" fill="#000000" font-size="5px" font-weight="bold" font-family="'Helvetica Neue', Helvetica, Arial-Unicode, Arial, Sans-serif">from the Noun Project</text></svg>