<svg xmlns="http://www.w3.org/2000/svg" xmlns:xlink="http://www.w3.org/1999/xlink" version="1.1" x="0px" y="0px" viewBox="0 0 24 30" style="enable-background:new 0 0 24 24;" xml:space="preserve"><g><path d="M15,1.25H9c-0.303772,0-0.5944824,0.0098267-0.8789062,0.0244751C8.0800781,1.2675171,8.0429688,1.25,8,1.25   c-0.0925293,0-0.1789551,0.0220337-0.2608032,0.0526733C3.2125244,1.6549683,1.25,4.0108032,1.25,9v6   c0,4.9891968,1.9625244,7.3450317,6.4891968,7.6973267C7.8210449,22.7279663,7.9074707,22.75,8,22.75   c0.0429688,0,0.0800781-0.0175171,0.1210938-0.0244751C8.4055176,22.7401733,8.696228,22.75,9,22.75h6   c5.4321289,0,7.75-2.3173828,7.75-7.75V9C22.75,3.5673828,20.4321289,1.25,15,1.25z M7.25,21.1477661   C3.9681396,20.7337646,2.75,18.9726562,2.75,15V9c0-3.9726562,1.2181396-5.7337646,4.5-6.1477661V21.1477661z M21.25,15   c0,4.6142578-1.6357422,6.25-6.25,6.25H9c-0.086792,0-0.1652832-0.0046997-0.25-0.0058594V2.7558594   C8.8347168,2.7546997,8.913208,2.75,9,2.75h6c4.6142578,0,6.25,1.6357422,6.25,6.25V15z M15.5302734,9.9707031L13.5009766,12   l2.0292969,2.0292969c0.2929688,0.2929688,0.2929688,0.7675781,0,1.0605469   C15.3837891,15.2363281,15.1918945,15.3095703,15,15.3095703s-0.3837891-0.0732422-0.5302734-0.2197266l-2.5595703-2.5595703   c-0.2929688-0.2929688-0.2929688-0.7675781,0-1.0605469l2.5595703-2.5595703c0.2929688-0.2929688,0.7675781-0.2929688,1.0605469,0   S15.8232422,9.6777344,15.5302734,9.9707031z"/></g><text x="0" y="39" fill="#000000" font-size="5px" font-weight="bold" font-family="'Helvetica Neue', Helvetica, Arial-Unicode, Arial, Sans-serif">Created by Azland Studio</text><text x="0" y="44" fill="#000000" font-size="5px" font-weight="bold" font-family="'Helvetica Neue', Helvetica, Arial-Unicode, Arial, Sans-serif">from the Noun Project</text></svg>