<svg xmlns="http://www.w3.org/2000/svg" viewBox="0 0 32 32" fill="#99A9DA" x="0px" y="0px"><title>Note, paper, document</title><g data-name="Layer 2"><path d="M28,26.9V7a3.1,3.1,0,0,0-3.1-3.1H23.5v-1a1,1,0,1,0-2,0v1H19.17v-1a1,1,0,1,0-2,0v1H14.83v-1a1,1,0,0,0-2,0v1H10.5v-1a1,1,0,0,0-2,0v1H7.1A3.1,3.1,0,0,0,4,7V26.9A3.1,3.1,0,0,0,7.1,30H24.9A3.1,3.1,0,0,0,28,26.9ZM17,25H9a1,1,0,0,1,0-2h8a1,1,0,0,1,0,2Zm2-4.33H9a1,1,0,0,1,0-2H19a1,1,0,0,1,0,2Zm2-4.34H9a1,1,0,0,1,0-2H21a1,1,0,1,1,0,2ZM23,12H9a1,1,0,0,1,0-2H23a1,1,0,0,1,0,2Z"/></g></svg>