<svg xmlns="http://www.w3.org/2000/svg" viewBox="0 0 1920 1080"><g transform="
          rotate(0 960 540) 
          translate(-0 -0)
          scale(1)
        "><rect width="1920" height="1080" fill="rgb(199, 220, 255)"></rect><g transform="translate(0, 0)"><path fill="rgb(153, 169, 218)" fill-opacity="1" d="M0,138.691L53.333,142.528C106.667,146.364,213.333,154.038,320,164.987C426.667,175.936,533.333,190.16,640,202.59C746.667,215.021,853.333,225.658,960,207.511C1066.667,189.365,1173.333,142.436,1280,145.33C1386.667,148.224,1493.333,200.942,1600,206.292C1706.667,211.641,1813.333,169.623,1866.667,148.614L1920,127.605L1920,1080L1866.667,1080C1813.333,1080,1706.667,1080,1600,1080C1493.333,1080,1386.667,1080,1280,1080C1173.333,1080,1066.667,1080,960,1080C853.333,1080,746.667,1080,640,1080C533.333,1080,426.667,1080,320,1080C213.333,1080,106.667,1080,53.333,1080L0,1080Z"></path></g><g transform="translate(0, 270)"><path fill="rgb(108, 117, 181)" fill-opacity="1" d="M0,85.859L53.333,104.758C106.667,123.658,213.333,161.457,320,163.128C426.667,164.798,533.333,130.339,640,99.59C746.667,68.84,853.333,41.801,960,66.955C1066.667,92.109,1173.333,169.457,1280,206.262C1386.667,243.067,1493.333,239.33,1600,204.405C1706.667,169.48,1813.333,103.367,1866.667,70.311L1920,37.254L1920,810L1866.667,810C1813.333,810,1706.667,810,1600,810C1493.333,810,1386.667,810,1280,810C1173.333,810,1066.667,810,960,810C853.333,810,746.667,810,640,810C533.333,810,426.667,810,320,810C213.333,810,106.667,810,53.333,810L0,810Z"></path></g><g transform="translate(0, 540)"><path fill="rgb(62, 66, 144)" fill-opacity="1" d="M0,223.479L53.333,201.953C106.667,180.427,213.333,137.375,320,114.068C426.667,90.761,533.333,87.199,640,94.4C746.667,101.601,853.333,119.566,960,117.78C1066.667,115.994,1173.333,94.457,1280,100.425C1386.667,106.392,1493.333,139.865,1600,150.961C1706.667,162.057,1813.333,150.777,1866.667,145.137L1920,139.497L1920,540L1866.667,540C1813.333,540,1706.667,540,1600,540C1493.333,540,1386.667,540,1280,540C1173.333,540,1066.667,540,960,540C853.333,540,746.667,540,640,540C533.333,540,426.667,540,320,540C213.333,540,106.667,540,53.333,540L0,540Z"></path></g><g transform="translate(0, 810)"><path fill="rgb(16, 14, 107)" fill-opacity="1" d="M0,11.699L53.333,48.097C106.667,84.495,213.333,157.292,320,182.285C426.667,207.278,533.333,184.469,640,146.206C746.667,107.943,853.333,54.227,960,62.59C1066.667,70.954,1173.333,141.398,1280,169.182C1386.667,196.966,1493.333,182.092,1600,172.683C1706.667,163.275,1813.333,159.332,1866.667,157.361L1920,155.39L1920,270L1866.667,270C1813.333,270,1706.667,270,1600,270C1493.333,270,1386.667,270,1280,270C1173.333,270,1066.667,270,960,270C853.333,270,746.667,270,640,270C533.333,270,426.667,270,320,270C213.333,270,106.667,270,53.333,270L0,270Z"></path></g></g></svg>