<svg xmlns="http://www.w3.org/2000/svg" viewBox="0 0 1920 1080"><g transform="
          rotate(0 960 540) 
          translate(-0 -0)
          scale(1)
        "><rect width="1920" height="1080" fill="rgb(214, 230, 255)"></rect><g transform="translate(0, 0)"><path fill="rgb(152, 162, 213)" fill-opacity="1" d="M0,336.846L53.333,299.464C106.667,262.082,213.333,187.318,320,141.023C426.667,94.728,533.333,76.902,640,100.376C746.667,123.849,853.333,188.622,960,192.185C1066.667,195.747,1173.333,138.099,1280,119.681C1386.667,101.263,1493.333,122.076,1600,166.266C1706.667,210.455,1813.333,278.022,1866.667,311.805L1920,345.588L1920,1080L1866.667,1080C1813.333,1080,1706.667,1080,1600,1080C1493.333,1080,1386.667,1080,1280,1080C1173.333,1080,1066.667,1080,960,1080C853.333,1080,746.667,1080,640,1080C533.333,1080,426.667,1080,320,1080C213.333,1080,106.667,1080,53.333,1080L0,1080Z"></path></g><g transform="translate(0, 360)"><path fill="rgb(90, 93, 170)" fill-opacity="1" d="M0,280.768L53.333,237.999C106.667,195.23,213.333,109.693,320,85.684C426.667,61.675,533.333,99.195,640,110.231C746.667,121.268,853.333,105.822,960,137.746C1066.667,169.669,1173.333,248.963,1280,282.547C1386.667,316.13,1493.333,304.004,1600,270.327C1706.667,236.651,1813.333,181.425,1866.667,153.812L1920,126.198L1920,720L1866.667,720C1813.333,720,1706.667,720,1600,720C1493.333,720,1386.667,720,1280,720C1173.333,720,1066.667,720,960,720C853.333,720,746.667,720,640,720C533.333,720,426.667,720,320,720C213.333,720,106.667,720,53.333,720L0,720Z"></path></g><g transform="translate(0, 720)"><path fill="rgb(28, 25, 128)" fill-opacity="1" d="M0,65.118L53.333,67.22C106.667,69.322,213.333,73.527,320,119.525C426.667,165.524,533.333,253.315,640,269.387C746.667,285.459,853.333,229.81,960,173.701C1066.667,117.591,1173.333,61.021,1280,73.944C1386.667,86.866,1493.333,169.282,1600,203.033C1706.667,236.784,1813.333,221.871,1866.667,214.414L1920,206.958L1920,360L1866.667,360C1813.333,360,1706.667,360,1600,360C1493.333,360,1386.667,360,1280,360C1173.333,360,1066.667,360,960,360C853.333,360,746.667,360,640,360C533.333,360,426.667,360,320,360C213.333,360,106.667,360,53.333,360L0,360Z"></path></g></g></svg>