<svg xmlns="http://www.w3.org/2000/svg" version="1.1" viewBox="0 0 100 100">
 <g>
  <path d="m43.75 8.332c-3.4258 0-6.25 2.8242-6.25 6.25v6.25h-18.75c-1.1523 0-2.082 0.93359-2.082 2.0859 0 1.1484 0.92969 2.082 2.082 2.082h2.082v56.25c0 5.7266 4.6914 10.418 10.418 10.418h37.5c5.7266 0 10.418-4.6914 10.418-10.418v-56.25h2.082c1.1523 0 2.082-0.93359 2.082-2.082 0-1.1523-0.92969-2.0859-2.082-2.0859h-18.75v-6.25c0-3.4258-2.8242-6.25-6.25-6.25zm0 4.168h12.5c1.1758 0 2.082 0.90625 2.082 2.082v6.25h-16.664v-6.25c0-1.1758 0.90625-2.082 2.082-2.082zm-18.75 12.5h50v8.332h-50zm0 12.5h50v37.5h-50zm0 41.668h50v2.082c0 3.4766-2.7734 6.25-6.25 6.25h-37.5c-3.4766 0-6.25-2.7734-6.25-6.25z"/>
  <path d="m37.5 41.668c-1.1523 0-2.082 0.92969-2.082 2.082v25c0 0.55078 0.21875 1.082 0.60938 1.4727s0.92188 0.60938 1.4727 0.60938 1.082-0.21875 1.4727-0.60938 0.60938-0.92188 0.60938-1.4727v-25c0-0.55078-0.21875-1.082-0.60938-1.4727s-0.92188-0.60938-1.4727-0.60938z"/>
  <path d="m50 41.668c-1.1523 0-2.082 0.92969-2.082 2.082v25c0 0.55078 0.21875 1.082 0.60938 1.4727s0.92188 0.60938 1.4727 0.60938 1.082-0.21875 1.4727-0.60938 0.60938-0.92188 0.60938-1.4727v-25c0-0.55078-0.21875-1.082-0.60938-1.4727s-0.92188-0.60938-1.4727-0.60938z"/>
  <path d="m62.5 41.668c-1.1523 0-2.082 0.92969-2.082 2.082v25c0 0.55078 0.21875 1.082 0.60938 1.4727s0.92188 0.60938 1.4727 0.60938 1.082-0.21875 1.4727-0.60938 0.60938-0.92188 0.60938-1.4727v-25c0-0.55078-0.21875-1.082-0.60938-1.4727s-0.92188-0.60938-1.4727-0.60938z"/>
 </g>
</svg>